HIERARCHY
ROOT hips
{
  OFFSET 0 10.6860622 2.3727825e-15
  CHANNELS 6 Xposition Yposition Zposition Yrotation Xrotation Zrotation
  JOINT leftUpperLeg
  {
    OFFSET 0.6642549969 -0.9402397400000004 0
    CHANNELS 3 Yrotation Xrotation Zrotation
    JOINT leftLowerLeg
    {
      OFFSET 0 -3.997221335632195 0
      CHANNELS 3 Yrotation Xrotation Zrotation
      JOINT leftFoot
      {
        OFFSET -0.13777839790000004 -4.6145792000000005 -0.22186036399999998
        CHANNELS 3 Yrotation Xrotation Zrotation
        JOINT leftToes
        {
          OFFSET -0.03777410834999995 -0.9130806927000008 0.85230013
          CHANNELS 3 Yrotation Xrotation Zrotation
          End Site
          {
            OFFSET -0.03777410834999995 -0.9130806927000008 0.85230013
          }
        }
      }
    }
  }
  JOINT rightUpperLeg
  {
    OFFSET -0.6642778626 -0.9402397400000004 0
    CHANNELS 3 Yrotation Xrotation Zrotation
    JOINT rightLowerLeg
    {
      OFFSET 0 -3.997221452859387 0
      CHANNELS 3 Yrotation Xrotation Zrotation
      JOINT rightFoot
      {
        OFFSET 0.1377926176 -4.6145792000000005 -0.22185782299999995
        CHANNELS 3 Yrotation Xrotation Zrotation
        JOINT rightToes
        {
          OFFSET 0.037780746850000047 -0.9130806927000008 0.85230167
          CHANNELS 3 Yrotation Xrotation Zrotation
          End Site
          {
            OFFSET 0.037780746850000047 -0.9130806927000008 0.85230167
          }
        }
      }
    }
  }
  JOINT spine
  {
    OFFSET 0 0.13988381660000015 0
    CHANNELS 3 Yrotation Xrotation Zrotation
    JOINT chest
    {
      OFFSET 0 0.6191039003973773 0
      CHANNELS 3 Yrotation Xrotation Zrotation
      JOINT upperChest
      {
        OFFSET 0 0.9855186130586943 0
        CHANNELS 3 Yrotation Xrotation Zrotation
        JOINT leftShoulder
        {
          OFFSET 0.1807663869 1.5087829790000005 0
          CHANNELS 3 Yrotation Xrotation Zrotation
          JOINT leftUpperArm
          {
            OFFSET 0.5985063006419806 0 0
            CHANNELS 3 Yrotation Xrotation Zrotation
            JOINT leftLowerArm
            {
              OFFSET 2.2993332369501065 0 0
              CHANNELS 3 Yrotation Xrotation Zrotation
              JOINT leftHand
              {
                OFFSET 2.395047042602395 0 0
                CHANNELS 3 Yrotation Xrotation Zrotation
                JOINT leftIndexProximal
                {
                  OFFSET 0.5766295810000004 0.04556643899499946 0.17265095988184
                  CHANNELS 3 Yrotation Xrotation Zrotation
                  JOINT leftIndexIntermediate
                  {
                    OFFSET 0.2957229000000008 -0.019352197700001517 -0.007932640616999987
                    CHANNELS 3 Yrotation Xrotation Zrotation
                    JOINT leftIndexDistal
                    {
                      OFFSET 0.19008243099999922 -0.012484908149998475 -0.002786250786000012
                      CHANNELS 3 Yrotation Xrotation Zrotation
                      End Site
                      {
                        OFFSET 0.19008243099999922 -0.012484908149998475 -0.002786250786000012
                      }
                    }
                  }
                }
                JOINT leftMiddleProximal
                {
                  OFFSET 0.5834975091000001 0.0524350405149987 0.02204081888183999
                  CHANNELS 3 Yrotation Xrotation Zrotation
                  JOINT leftMiddleIntermediate
                  {
                    OFFSET 0.33880573540000003 -0.019871473270000717 -0.00000971183179999946
                    CHANNELS 3 Yrotation Xrotation Zrotation
                    JOINT leftMiddleDistal
                    {
                      OFFSET 0.20676022730000088 -0.012221336379999448 0.0001471936708000235
                      CHANNELS 3 Yrotation Xrotation Zrotation
                      End Site
                      {
                        OFFSET 0.20676022730000088 -0.012221336379999448 0.0001471936708000235
                      }
                    }
                  }
                }
                JOINT leftLittleProximal
                {
                  OFFSET 0.5344154683999995 -0.012880921405001189 -0.24414037221816004
                  CHANNELS 3 Yrotation Xrotation Zrotation
                  JOINT leftLittleIntermediate
                  {
                    OFFSET 0.21758961730000093 -0.011650919939999227 0.011893592810000034
                    CHANNELS 3 Yrotation Xrotation Zrotation
                    JOINT leftLittleDistal
                    {
                      OFFSET 0.1475273964999999 -0.008152365682999818 0.006001092492999946
                      CHANNELS 3 Yrotation Xrotation Zrotation
                      End Site
                      {
                        OFFSET 0.1475273964999999 -0.008152365682999818 0.006001092492999946
                      }
                    }
                  }
                }
                JOINT leftRingProximal
                {
                  OFFSET 0.5799399463000003 0.026911854694997794 -0.12150566991816003
                  CHANNELS 3 Yrotation Xrotation Zrotation
                  JOINT leftRingIntermediate
                  {
                    OFFSET 0.26167887460000006 -0.013480186499999602 0.010996293000000053
                    CHANNELS 3 Yrotation Xrotation Zrotation
                    JOINT leftRingDistal
                    {
                      OFFSET 0.17667108799999987 -0.008990287899999228 0.0055541023999999065
                      CHANNELS 3 Yrotation Xrotation Zrotation
                      End Site
                      {
                        OFFSET 0.17667108799999987 -0.008990287899999228 0.0055541023999999065
                      }
                    }
                  }
                }
                JOINT leftThumbProximal
                {
                  OFFSET 0.11018806699999972 -0.09448718900500053 0.17047963138184
                  CHANNELS 3 Yrotation Xrotation Zrotation
                  JOINT leftThumbIntermediate
                  {
                    OFFSET 0.31062601459999983 -0.08126270900000132 0.15443142000000007
                    CHANNELS 3 Yrotation Xrotation Zrotation
                    JOINT leftThumbDistal
                    {
                      OFFSET 0.21627175790000086 -0.08833193599999878 0.018771167799999988
                      CHANNELS 3 Yrotation Xrotation Zrotation
                      End Site
                      {
                        OFFSET 0.21627175790000086 -0.08833193599999878 0.018771167799999988
                      }
                    }
                  }
                }
              }
            }
          }
        }
        JOINT neck
        {
          OFFSET 0 1.5463305265074576 0
          CHANNELS 3 Yrotation Xrotation Zrotation
          JOINT head
          {
            OFFSET 0 0.8456443600000344 0
            CHANNELS 3 Yrotation Xrotation Zrotation
            JOINT leftEye
            {
              OFFSET 0.30408573140000006 0.5104519199999995 0.1276382305
              CHANNELS 3 Yrotation Xrotation Zrotation
              End Site
              {
                OFFSET 0.30408573140000006 0.5104519199999995 0.1276382305
              }
            }
            JOINT rightEye
            {
              OFFSET -0.30409491089999996 0.5104519199999995 0.1276379445
              CHANNELS 3 Yrotation Xrotation Zrotation
              End Site
              {
                OFFSET -0.30409491089999996 0.5104519199999995 0.1276379445
              }
            }
            JOINT jaw
            {
              OFFSET -3.155239131000001e-7 -0.11984121820000082 0.60178107
              CHANNELS 3 Yrotation Xrotation Zrotation
              End Site
              {
                OFFSET -3.155239131000001e-7 -0.11984121820000082 0.60178107
              }
            }
          }
        }
        JOINT rightShoulder
        {
          OFFSET -0.1807303465 1.5087829790000005 0
          CHANNELS 3 Yrotation Xrotation Zrotation
          JOINT rightUpperArm
          {
            OFFSET -0.5985063796536958 0 0
            CHANNELS 3 Yrotation Xrotation Zrotation
            JOINT rightLowerArm
            {
              OFFSET -2.2993322059002854 0 0
              CHANNELS 3 Yrotation Xrotation Zrotation
              JOINT rightHand
              {
                OFFSET -2.395045314457259 0 0
                CHANNELS 3 Yrotation Xrotation Zrotation
                JOINT rightIndexProximal
                {
                  OFFSET -0.5764487688300002 0.0441371204405987 0.17361932004999997
                  CHANNELS 3 Yrotation Xrotation Zrotation
                  JOINT rightIndexIntermediate
                  {
                    OFFSET -0.29573011380000047 -0.01934826376999843 -0.007698921482999974
                    CHANNELS 3 Yrotation Xrotation Zrotation
                    JOINT rightIndexDistal
                    {
                      OFFSET -0.19008373999999884 -0.012503266380000655 -0.0026365778999999897
                      CHANNELS 3 Yrotation Xrotation Zrotation
                      End Site
                      {
                        OFFSET -0.19008373999999884 -0.012503266380000655 -0.0026365778999999897
                      }
                    }
                  }
                }
                JOINT rightMiddleProximal
                {
                  OFFSET -0.5834852037300005 0.05211639405060153 0.02307162440000001
                  CHANNELS 3 Yrotation Xrotation Zrotation
                  JOINT rightMiddleIntermediate
                  {
                    OFFSET -0.33880114510000003 -0.019952774050000954 0.0002455003561999819
                    CHANNELS 3 Yrotation Xrotation Zrotation
                    JOINT rightMiddleDistal
                    {
                      OFFSET -0.20675694929999955 -0.012273788999999091 0.00030209124000002766
                      CHANNELS 3 Yrotation Xrotation Zrotation
                      End Site
                      {
                        OFFSET -0.20675694929999955 -0.012273788999999091 0.00030209124000002766
                      }
                    }
                  }
                }
                JOINT rightLittleProximal
                {
                  OFFSET -0.5346811737299992 -0.011214256288399227 -0.24363941305000003
                  CHANNELS 3 Yrotation Xrotation Zrotation
                  JOINT rightLittleIntermediate
                  {
                    OFFSET -0.21757715980000092 -0.011771559690000988 0.01201554387
                    CHANNELS 3 Yrotation Xrotation Zrotation
                    JOINT rightLittleDistal
                    {
                      OFFSET -0.1475201849000004 -0.00822055339600003 0.006082065407000015
                      CHANNELS 3 Yrotation Xrotation Zrotation
                      End Site
                      {
                        OFFSET -0.1475201849000004 -0.00822055339600003 0.006082065407000015
                      }
                    }
                  }
                }
                JOINT rightRingProximal
                {
                  OFFSET -0.5800810755299999 0.027657985680600072 -0.12066365025000003
                  CHANNELS 3 Yrotation Xrotation Zrotation
                  JOINT rightRingIntermediate
                  {
                    OFFSET -0.26166445029999974 -0.013623118409999302 0.011164098990000045
                    CHANNELS 3 Yrotation Xrotation Zrotation
                    JOINT rightRingDistal
                    {
                      OFFSET -0.17666387530000027 -0.009072900100000503 0.005668185599999959
                      CHANNELS 3 Yrotation Xrotation Zrotation
                      End Site
                      {
                        OFFSET -0.17666387530000027 -0.009072900100000503 0.005668185599999959
                      }
                    }
                  }
                }
                JOINT rightThumbProximal
                {
                  OFFSET -0.10997596379000074 -0.09577489355940072 0.16989765924999997
                  CHANNELS 3 Yrotation Xrotation Zrotation
                  JOINT rightThumbIntermediate
                  {
                    OFFSET -0.31036620999999986 -0.08229339117999834 0.15440884469999996
                    CHANNELS 3 Yrotation Xrotation Zrotation
                    JOINT rightThumbDistal
                    {
                      OFFSET -0.21631306399999906 -0.08825326400000111 0.018656797720000014
                      CHANNELS 3 Yrotation Xrotation Zrotation
                      End Site
                      {
                        OFFSET -0.21631306399999906 -0.08825326400000111 0.018656797720000014
                      }
                    }
                  }
                }
              }
            }
          }
        }
      }
    }
  }
}
MOTION
Frames: 8
Frame Time: 0.03333333333333333
-0.08303520089667402 -1.7685169249248611 0.2598705482998375 0 -7.6513853688554265 0 177.54397031828495 -29.14125325441619 -119.00816489181493 112.45553614296298 39.22046359884146 168.65072586686716 -48.577434168116554 -7.833131256562593 5.713109840198136 0 0 0 -177.54639809638095 -29.11804991988151 118.99020279404111 -112.41087693154796 39.249422457633045 -168.6414193998934 48.5720935993395 -7.837219727338244 -5.708591280991158 0 0 0 -0.2689861336723659 6.724953428142688 -0.9854452838275907 -1.0266792021944944 4.317036806457888 -2.293410882667 0 0 0 -6.904429757310924 -4.48020916091681 11.166582785138115 -7.685423736546464 -12.031526142408879 -52.64266721522291 -75.94293706159456 -10.998927664895938 -35.007649340997865 19.73367512219703 -9.664675781207784 -14.055024615565664 0 0 0 0 0 0 0 0 0 0 0 0 0 0 0 0 0 0 0 0 0 0 0 0 0 0 0 0 0 0 0 0 0 0 0 0 0 0 0 0 0 0 0 0 0 0 33.75651112768744 0 0 -23.532394018243615 0 0 0 0 0 0 0 0 0 0 6.408781937140101 -4.675580014169548 -11.938562967429705 7.944308761247925 -12.488958224069249 52.134657304834064 74.28882903057129 -9.976695686470833 34.299522684256424 -17.652661278744965 -9.251064001151104 16.68082737103198 0 0 0 0 0 0 0 0 0 0 0 0 0 0 0 0 0 0 0 0 0 0 0 0 0 0 0 0 0 0 0 0 0 0 0 0 0 0 0 0 0 0 0 0 0
-0.08303520089667402 -1.7803677856643796 0.25531566306350206 0 -7.3009635786608555 0 177.39972985314674 -28.863303232214967 -119.41137138180386 112.45553614296298 39.22046359884146 168.65072586686716 -48.27419959807929 -7.85658621487923 5.354737078065181 0 0 0 -177.4024484625431 -28.840735280686665 119.3930206001098 -112.41087693154796 39.249422457633045 -168.6414193998934 48.26973213248284 -7.860722319296554 -5.35022609257626 0 0 0 -0.269176074988585 7.050372002492472 -0.9869696949926242 -1.0250884763454704 2.942199032918654 -2.268812283117784 0 0 0 -6.617027402466701 -4.072508810619297 11.16881641564926 -7.661171398935787 -11.943693783611227 -52.83485314042014 -76.12377069689128 -11.122663533724547 -35.13832775057677 19.96860011792724 -9.552642798550147 -14.162834300565867 0 0 0 0 0 0 0 0 0 0 0 0 0 0 0 0 0 0 0 0 0 0 0 0 0 0 0 0 0 0 0 0 0 0 0 0 0 0 0 0 0 0 0 0 0 0 34.138939400122865 0 0 -23.4139180040934 0 0 0 0 0 0 0 0 0 0 6.096210648739597 -4.290974865761775 -11.957700131638314 7.933597552794895 -12.420091847283224 52.34030956316698 74.44265618709417 -10.079780902308602 34.428885218041096 -17.866764589027586 -9.106263430342263 16.843382889354476 0 0 0 0 0 0 0 0 0 0 0 0 0 0 0 0 0 0 0 0 0 0 0 0 0 0 0 0 0 0 0 0 0 0 0 0 0 0 0 0 0 0 0 0 0
-0.08303520089667402 -1.7922186464039003 0.25076077782716666 0 -6.950552973743156 0 177.25366525195005 -28.58624807778647 -119.8142297525032 112.45553614296298 39.22046359884146 168.65072586686716 -47.97082661759076 -7.878161809513366 4.996248079468636 0 0 0 -177.2566750586117 -28.564348350806622 119.79553963688744 -112.41087693154796 39.249422457633045 -168.6414193998934 47.96723645727224 -7.8823507061625655 -4.9917448296199405 0 0 0 -0.2693749278194928 7.375780428484635 -0.9884962534196098 -1.0240896905220982 1.5681575859574728 -2.244287839748031 0 0 0 -6.329768931355317 -3.6648553578632015 11.173094627357115 -7.6372268106301595 -11.85577910404951 -53.026916780808335 -76.30440187166191 -11.246803639095605 -35.26868256800474 20.203212634237843 -9.44017843639872 -14.270129511557823 0 0 0 0 0 0 0 0 0 0 0 0 0 0 0 0 0 0 0 0 0 0 0 0 0 0 0 0 0 0 0 0 0 0 0 0 0 0 0 0 0 0 0 0 0 0 34.5208846257835 0 0 -23.295428997301727 0 0 0 0 0 0 0 0 0 0 5.7836832018002 -3.906508565559227 -11.978928603830237 7.923147720462923 -12.351186884900201 52.54587745654158 74.59632784022094 -10.183206171088182 34.55801235821209 -18.08035826795013 -8.960869792211314 17.005320874871263 0 0 0 0 0 0 0 0 0 0 0 0 0 0 0 0 0 0 0 0 0 0 0 0 0 0 0 0 0 0 0 0 0 0 0 0 0 0 0 0 0 0 0 0 0
-0.08303520089667402 -1.8040695071434187 0.24620562419855993 0 -6.600163212458367 0 177.10579743748838 -28.310155711968548 -120.21682107151445 112.45553614296298 39.22046359884146 168.65072586686716 -47.66735218887036 -7.897852578466914 4.637663868273444 0 0 0 -177.10909901707424 -28.288914184528853 120.19774386990963 -112.41087693154796 39.249422457633045 -168.6414193998934 47.66461438618565 -7.902102011714906 -4.63316250166386 0 0 0 -0.26958278448113904 7.701176269131668 -0.9900251598156548 -1.0236802526795934 0.19529767132165726 -2.219818261161688 0 0 0 -6.04263629982992 -3.257273435940513 11.179418300886736 -7.613593507524639 -11.767792441892938 -53.21888948710106 -76.48482270716175 -11.371341246210934 -35.39868730136641 20.437540588873315 -9.327282686361974 -14.376926247520371 0 0 0 0 0 0 0 0 0 0 0 0 0 0 0 0 0 0 0 0 0 0 0 0 0 0 0 0 0 0 0 0 0 0 0 0 0 0 0 0 0 0 0 0 0 0 34.90234476003748 0 0 -23.176932098925576 0 0 0 0 0 0 0 0 0 0 5.471184023673382 -3.5222065971207788 -12.002242391546764 7.912950262325557 -12.282252879364446 52.75138261231681 74.74979230249258 -10.286966085157644 34.686887794930435 -18.29344569606073 -8.81488459637495 17.166638435140875 0 0 0 0 0 0 0 0 0 0 0 0 0 0 0 0 0 0 0 0 0 0 0 0 0 0 0 0 0 0 0 0 0 0 0 0 0 0 0 0 0 0 0 0 0
-0.08303520089667402 -1.8159203678829394 0.2416507389622245 0 -6.249800913243916 0 176.9561423279084 -28.03504125527551 -120.61908385936916 112.45553614296298 39.22046359884146 168.65072586686716 -47.36375209029556 -7.915659116830372 4.279001346220336 0 0 0 -176.95974197167482 -28.014455781513927 120.5996724544803 -112.41087693154796 39.249422457633045 -168.6414193998934 47.36190274754924 -7.91997424522319 -4.274510184001047 0 0 0 -0.2697996584721715 8.02654887900844 -0.9915562922813347 -1.0238560587965957 -1.1759834075244608 -2.1953824989671284 0 0 0 -5.755612067700734 -2.849792774593644 11.18778492013759 -7.59026711618297 -11.679733659064206 -53.410772622639335 -76.66500252415898 -11.496268750018844 -35.52832914103616 20.671567342386417 -9.213963315934413 -14.483212767243927 0 0 0 0 0 0 0 0 0 0 0 0 0 0 0 0 0 0 0 0 0 0 0 0 0 0 0 0 0 0 0 0 0 0 0 0 0 0 0 0 0 0 0 0 0 0 35.28332170385227 0 0 -23.058426823785766 0 0 0 0 0 0 0 0 0 0 5.158697450245766 -3.1380944338606476 -12.02764586649068 7.9030088815639115 -12.213281891909268 52.956822973860184 74.90306663284966 -10.391066521468302 34.81552238511284 -18.506015527094842 -8.66831710235769 17.327329668827108 0 0 0 0 0 0 0 0 0 0 0 0 0 0 0 0 0 0 0 0 0 0 0 0 0 0 0 0 0 0 0 0 0 0 0 0 0 0 0 0 0 0 0 0 0
-0.08303520089667402 -1.827771228622459 0.23709585372588907 0 -5.899470956091042 0 176.80472295599571 -27.7608947322824 -121.02101681355454 112.45553614296298 39.22046359884146 168.65072586686716 -47.06009261786361 -7.931582044376434 3.9202882367771523 0 0 0 -176.80863130473006 -27.7409844737827 121.0012532758922 -112.41087693154796 39.249422457633045 -168.6414193998934 47.059099672302025 -7.935966302065968 -3.9158003678261584 0 0 0 -0.2700255325453207 8.35189662808275 -0.9930899119771052 -1.0246154789984723 -2.545293655531838 -2.170958708155251 0 0 0 -5.4686758572548975 -2.4424351732788474 11.198185712892684 -7.567252375920253 -11.591599130435691 -53.602538930969 -76.84497570824317 -11.621592490861671 -35.65762606974717 20.90529211347406 -9.100222886103067 -14.588990008069 0 0 0 0 0 0 0 0 0 0 0 0 0 0 0 0 0 0 0 0 0 0 0 0 0 0 0 0 0 0 0 0 0 0 0 0 0 0 0 0 0 0 0 0 0 0 35.66379617659144 0 0 -22.93991083357009 0 0 0 0 0 0 0 0 0 0 4.846206659818519 -2.7541992608480617 -12.055128573013903 7.89332506756929 -12.144277344881365 53.16217547124981 75.05613455466009 -10.495494269811271 34.94390658460713 -18.718079379414604 -8.521172218136194 17.487404324016712 0 0 0 0 0 0 0 0 0 0 0 0 0 0 0 0 0 0 0 0 0 0 0 0 0 0 0 0 0 0 0 0 0 0 0 0 0 0 0 0 0 0 0 0 0
-0.08303520089667402 -1.8396220893619797 0.2325407000972823 0 -5.549179922015029 0 176.65156416892472 -27.487794954442695 -121.4226774252168 112.45553614296298 39.22046359884146 168.65072586686716 -46.75635472422324 -7.9456194196777705 3.5615392232202527 0 0 0 -176.65578460639338 -27.468528945069803 121.40253476794231 -112.41087693154796 39.249422457633045 -168.6414193998934 46.7562615982509 -7.950077964260522 -3.5570609992724265 0 0 0 -0.2702595869598653 8.677211822250145 -0.9946247582124869 -1.0259588163780498 -3.9122537432219926 -2.1465248077148043 0 0 0 -5.181811366844941 -2.035226061495377 11.210626296440367 -7.544545387438085 -11.503390462058107 -53.794200286394805 -77.0247369755941 -11.74730836865248 -35.78658555188278 21.138717373721207 -8.986066539161962 -14.694257125513975 0 0 0 0 0 0 0 0 0 0 0 0 0 0 0 0 0 0 0 0 0 0 0 0 0 0 0 0 0 0 0 0 0 0 0 0 0 0 0 0 0 0 0 0 0 0 36.04376944496689 0 0 -22.821398470593785 0 0 0 0 0 0 0 0 0 0 4.5336957277719625 -2.370545284695 -12.084692795388742 7.883896850996108 -12.075245276032334 53.367460406825224 75.20902167275605 -10.600260430460215 35.072054997792506 -18.929629228019937 -8.373453097617206 17.646848279655117 0 0 0 0 0 0 0 0 0 0 0 0 0 0 0 0 0 0 0 0 0 0 0 0 0 0 0 0 0 0 0 0 0 0 0 0 0 0 0 0 0 0 0 0 0
-0.08303520089667402 -1.8514729501014981 0.22798581486094688 0 -5.198933947234613 0 176.49668513382855 -27.215766338199195 -121.82404468531698 112.45553614296298 39.22046359884146 168.65072586686716 -46.45262911175587 -7.95776760203301 3.2027887510463278 0 0 0 -176.50121998381647 -27.19712542272259 121.80354271422232 -112.41087693154796 39.249422457633045 -168.6414193998934 46.453386695896924 -7.962310762987936 -3.1983149087130394 0 0 0 -0.2705036317575122 9.002490184336347 -0.9961635271994322 -1.0278850169644658 -5.276476432371902 -2.122060659655363 0 0 0 -4.894999043458688 -1.6281941864311944 11.225094464898595 -7.522148303780853 -11.415115353916642 -53.985761456155934 -77.20427494792797 -11.873403564197327 -35.91516838605944 21.371833513835295 -8.871494217632224 -14.799011700980277 0 0 0 0 0 0 0 0 0 0 0 0 0 0 0 0 0 0 0 0 0 0 0 0 0 0 0 0 0 0 0 0 0 0 0 0 0 0 0 0 0 0 0 0 0 0 36.42322137444137 0 0 -22.702865156478147 0 0 0 0 0 0 0 0 0 0 4.221149789591468 -1.9871595167526779 -12.11633493504028 7.874723995657089 -12.00618124218997 53.57266943181847 75.36171663078144 -10.705349190692784 35.19993982432993 -19.14066640551995 -8.22516718249765 17.80567194696796 0 0 0 0 0 0 0 0 0 0 0 0 0 0 0 0 0 0 0 0 0 0 0 0 0 0 0 0 0 0 0 0 0 0 0 0 0 0 0 0 0 0 0 0 0
